<svg id="Group_3035" data-name="Group 3035" xmlns="http://www.w3.org/2000/svg" width="22.388" height="15" viewBox="0 0 22.388 15">
  <g id="Group_2964" data-name="Group 2964" transform="translate(0.01 0.01)">
    <rect id="Rectangle_166" data-name="Rectangle 166" width="22.369" height="14.981" transform="translate(0 0)" fill="#102576"/>
  </g>
  <g id="Group_2965" data-name="Group 2965" transform="translate(0.01 0.01)">
    <path id="Path_7686" data-name="Path 7686" d="M3362.979,385.068h2.8l5.868,3.93v-3.93h5.029V389l5.866-3.929h2.8v1.876l-4.627,3.1h4.627v5.029h-4.627l4.627,3.1v1.876h-2.8l-5.867-3.93v3.93h-5.029v-3.931l-5.869,3.931h-2.8v-1.876l4.628-3.1h-4.628v-5.029h4.629l-4.629-3.1Z" transform="translate(-3362.979 -385.068)" fill="#fff"/>
  </g>
  <g id="Group_2966" data-name="Group 2966" transform="translate(0.01 10.15)">
    <path id="Path_7687" data-name="Path 7687" d="M3371.415,434.895v-.35h-1.208l-7.228,4.84h1.729Z" transform="translate(-3362.979 -434.545)" fill="#e50019"/>
  </g>
  <g id="Group_2967" data-name="Group 2967" transform="translate(13.946 0.01)">
    <path id="Path_7688" data-name="Path 7688" d="M3430.733,389.558v.351h1.205l7.228-4.84h-1.729Z" transform="translate(-3430.733 -385.068)" fill="#e50019"/>
  </g>
  <g id="Group_2968" data-name="Group 2968" transform="translate(0.01 0.01)">
    <path id="Path_7689" data-name="Path 7689" d="M3362.979,386.225l5.5,3.684h1.729l-7.229-4.84h0Z" transform="translate(-3362.979 -385.068)" fill="#e50019"/>
  </g>
  <g id="Group_2969" data-name="Group 2969" transform="translate(15.152 10.15)">
    <path id="Path_7690" data-name="Path 7690" d="M3436.863,434.545l7.227,4.84v-1.158l-5.5-3.683Z" transform="translate(-3436.863 -434.545)" fill="#e50019"/>
  </g>
  <g id="Group_2970" data-name="Group 2970" transform="translate(0.01 0.01)">
    <path id="Path_7691" data-name="Path 7691" d="M3375.673,391.05v-5.982h-3.018v5.982h-9.677v3.017h9.677v5.982h3.018v-5.982h9.674V391.05Z" transform="translate(-3362.979 -385.068)" fill="#e50019"/>
  </g>
  <g id="Group_2971" data-name="Group 2971">
    <path id="Path_7692" data-name="Path 7692" d="M3385.317,400.019h-22.388v-15h22.388Zm-22.368-.02H3385.3v-14.96h-22.348Z" transform="translate(-3362.929 -385.019)" fill="#1a1818"/>
  </g>
</svg>
